<svg xmlns="http://www.w3.org/2000/svg" viewBox="0 0 24 24" width="24" height="24" fill="#10a37f">
  <path d="M21.3,11.05C21.82,9.3 21.36,7.4 20.14,6.08C19.78,5.7 19.34,5.4 18.86,5.18C19.26,3.61 18.84,1.96 17.73,0.76C16.32,-0.2 14.4,-0.28 12.92,0.57C12.18,0.22 11.38,0.04 10.57,0.05C8.88,0.06 7.33,0.96 6.54,2.4C5.13,2.58 3.86,3.46 3.19,4.76C2.38,5.42 1.81,6.34 1.57,7.39C0.67,8.68 0.45,10.33 0.98,11.8C0.46,13.55 0.92,15.45 2.14,16.77C2.5,17.15 2.94,17.45 3.42,17.67C3.02,19.24 3.44,20.89 4.55,22.09C5.96,23.05 7.88,23.13 9.36,22.28C10.1,22.63 10.9,22.81 11.71,22.8C13.4,22.79 14.95,21.89 15.74,20.45C17.15,20.27 18.42,19.39 19.09,18.09C19.9,17.43 20.47,16.51 20.71,15.46C21.61,14.17 21.83,12.52 21.3,11.05ZM18.7,7.3C19.25,8.19 19.37,9.26 19.04,10.23L11.5,5.88V2.78C12.55,2.77 13.58,3.22 14.3,4.03C14.73,4.52 15.02,5.1 15.14,5.73C15.2,6.02 15.34,6.29 15.56,6.49C16.43,7.24 17.6,7.52 18.7,7.3ZM12.7,2.22V8.92L6.87,12.28V9.75C6.87,8.7 7.37,7.72 8.21,7.12C8.6,6.84 9.04,6.65 9.51,6.56C9.79,6.51 10.05,6.37 10.25,6.16C10.99,5.29 12.11,4.92 13.2,5.19L12.7,2.22ZM5.91,6.34C6.46,5.45 7.42,4.89 8.47,4.82L14.3,8.18V11.5L8.47,8.13V4.93C7.42,4.94 6.39,5.39 5.67,6.2C5.24,6.69 4.95,7.27 4.83,7.9C4.77,8.19 4.63,8.46 4.41,8.66C3.54,9.41 2.37,9.69 1.27,9.47C1.82,8.58 2.78,8.02 3.83,7.95L3.8,4.95L5.91,6.34ZM1.8,11.8C1.25,10.91 1.13,9.84 1.46,8.87L9,13.22V16.32C7.95,16.33 6.92,15.88 6.2,15.07C5.77,14.58 5.48,14 5.36,13.37C5.3,13.08 5.16,12.81 4.94,12.61C4.07,11.86 2.9,11.58 1.8,11.8ZM9.3,20.58V13.88L15.13,10.52V13.05C15.13,14.1 14.63,15.08 13.79,15.68C13.4,15.96 12.96,16.15 12.49,16.24C12.21,16.29 11.95,16.43 11.75,16.64C11.01,17.51 9.89,17.88 8.8,17.61L9.3,20.58ZM16.09,16.46C15.54,17.35 14.58,17.91 13.53,17.98L7.7,14.62V11.3L13.53,14.67V17.87C14.58,17.86 15.61,17.41 16.33,16.6C16.76,16.11 17.05,15.53 17.17,14.9C17.23,14.61 17.37,14.34 17.59,14.14C18.46,13.39 19.63,13.11 20.73,13.33C20.18,14.22 19.22,14.78 18.17,14.85L18.2,17.85L16.09,16.46Z"/>
</svg>
